/* XPM */
static const char * Subset_xpm[] = {
/* columns rows colors chars-per-pixel */
"32 32 27 1",
"  c #003939",
". c #4F2C00",
"X c #6D3D00",
"o c #6D6D00",
"O c #585858",
"+ c #850000",
"@ c #BA3232",
"# c #FF4848",
"$ c #008700",
"% c #856500",
"& c #BA9A00",
"* c #FF8F00",
"= c yellow",
"- c #000085",
"; c #343485",
": c #440085",
"> c #4848BA",
", c #6969FF",
"< c #870087",
"1 c #BA00BA",
"2 c #956FBA",
"3 c #00AA00",
"4 c #00D7FF",
"5 c #0A7AB5",
"6 c #B1B1B1",
"7 c #D7A2FF",
"8 c None",
/* pixels */
"88888888888888888888888888888888",
"88888888888888888333888888888888",
"888888&&111111133333355888888888",
"8&&&&&&&&1111ooooo5555555@@88888",
"8%%&&XXXXXXXooooooo22@@@@@@@@@88",
"8%%%..XXXXXX>>>222222222@@@####8",
"8%%%....;>>>>>>>>>2227777######8",
"8%%%....;;;>>>,,,,,777777######8",
"8%%%....;;;;,,,,,,,777777######8",
"8%%%....;;;;,,,,,,,777777######8",
"8%%%....;;;;,,,,,,,777777######8",
"8--%....;;;;,,,,,,,777777######8",
"8--- ...;;;;,,,,,,,777777####**8",
"8---   .;;;;,,,,,,,7777$$******8",
"8---    O;;;,,,,,,$$$$$$$******8",
"8---    OOO;,66666$$$$$$$******8",
"8---    OOOO666666$$$$$$$******8",
"8:--    OOOO666666$$$$$$$******8",
"8:::    OOOO666666$$$$$$$******8",
"8:::+   OOOO666666$$$$$$$****<<8",
"8:::+++ OOOO666666$$$$$$4<<<<<<8",
"8:::++++%OOO666666$$44444<<<<<<8",
"8:::++++%%OO6666==4444444<<<<<<8",
"8:::++++%%%%======4444444<<<<<<8",
"888:++++%%%%======4444444<<<<<<8",
"8888++++%%%%======4444444<<<<<<8",
"888888++%%%%======4444444<<<8888",
"8888888+%%%%======44444488888888",
"88888888%%%%======44488888888888",
"8888888888%%=====888888888888888",
"88888888888%=8888888888888888888",
"88888888888888888888888888888888"
};
